<svg width="211" height="211" viewBox="0 0 211 211" fill="none" xmlns="http://www.w3.org/2000/svg">
<path fill-rule="evenodd" clip-rule="evenodd" d="M203.569 144.155C204.961 140.597 206.169 136.935 207.178 133.178L78.4092 4.40924C74.6789 5.4192 71.0211 6.63181 67.4505 8.03633L203.569 144.155ZM66.4399 8.43992C63.0417 9.81749 59.7244 11.3696 56.501 13.0868L198.531 155.117C200.239 151.904 201.789 148.585 203.167 145.167L66.4399 8.43992ZM201.093 61.6787C190.748 39.3899 172.732 21.027 149.89 10.4759L201.093 61.6787ZM126.217 2.80293C133.603 4.26142 140.666 6.47077 147.338 9.33846L202.241 64.2407C205.16 70.9964 207.382 78.0903 208.833 85.4183L126.217 2.80293ZM124.474 2.47372C123.598 2.31584 122.717 2.16847 121.832 2.03178C117.269 1.32668 112.728 0.92684 108.231 0.817068L210.79 103.376C210.67 97.8804 210.118 92.4628 209.162 87.1623L124.474 2.47372ZM92.9742 1.55995C97.5145 1.00368 102.128 0.741936 106.792 0.7918L210.812 104.812C210.849 109.365 210.59 113.97 210.018 118.604L92.9742 1.55995ZM91.7212 1.72119C87.5877 2.27856 83.5172 3.08022 79.5274 4.11315L207.473 132.058C208.33 128.721 209.032 125.31 209.57 121.832C209.671 121.173 209.767 120.514 209.856 119.856L91.7212 1.72119ZM2.03179 89.7689C2.109 89.2691 2.18962 88.7707 2.27362 88.2736L123.352 209.352C119.019 210.086 114.609 210.551 110.145 210.731L0.880799 101.467C1.04559 97.5933 1.42604 93.6897 2.03179 89.7689ZM5.31107 75.3111C4.15735 79.1309 3.21018 83.054 2.48414 87.0699L124.555 209.141C128.542 208.418 132.462 207.467 136.299 206.299L5.31107 75.3111ZM5.64403 74.2298C6.78517 70.5939 8.11413 67.0536 9.61815 63.6181L147.974 201.974C144.527 203.489 140.99 204.823 137.378 205.964L5.64403 74.2298ZM0.831597 102.832L108.777 210.777C103.739 210.914 98.6341 210.688 93.4923 210.078L1.49441 118.08C0.907991 113.075 0.679458 107.981 0.831597 102.832ZM1.6966 119.697L91.8733 209.873C91.1725 209.779 90.4709 209.678 89.7689 209.57C83.9732 208.674 78.3619 207.321 72.9661 205.552L6.03991 138.626C4.02406 132.516 2.55957 126.183 1.6966 119.697ZM6.77498 140.775C17.1866 170.172 40.4487 194.133 70.8238 204.824L6.77498 140.775ZM148.952 201.538L10.0529 62.6387C11.5443 59.3254 13.1992 56.1117 15.0061 53.0061L158.577 196.577C155.461 198.392 152.248 200.048 148.952 201.538ZM159.467 196.053L15.5301 52.1158C17.3314 49.0892 19.2779 46.1674 21.3586 43.3586L168.228 190.228C165.407 192.313 162.483 194.257 159.467 196.053ZM28.6075 34.6075C26.2694 37.138 24.0513 39.788 21.9639 42.5497L169.037 189.623C171.793 187.544 174.447 185.33 176.989 182.989L28.6075 34.6075ZM29.29 33.8758C31.6517 31.368 34.1324 28.9806 36.7213 26.7213L184.888 174.888C182.618 177.481 180.226 179.957 177.722 182.308L29.29 33.8758ZM45.7013 19.7013C42.8589 21.686 40.1147 23.8101 37.4799 26.0657L185.544 174.13C187.797 171.507 189.924 168.766 191.917 165.917L45.7013 19.7013ZM46.5376 19.1234C49.4553 17.1276 52.4741 15.2777 55.5822 13.5822L198.036 156.036C196.336 159.157 194.486 162.174 192.495 165.081L46.5376 19.1234Z" fill="url(#paint0_linear_5_131)" fill-opacity="0.6"/>
<defs>
<linearGradient id="paint0_linear_5_131" x1="63.1096" y1="11.133" x2="157.036" y2="199.458" gradientUnits="userSpaceOnUse">
<stop stop-color="#4247BB"/>
<stop offset="0.0625" stop-color="#3628BE" stop-opacity="0.965232"/>
<stop offset="0.631149" stop-color="#E05100" stop-opacity="0.64"/>
<stop offset="1" stop-color="#BF2929"/>
</linearGradient>
</defs>
</svg>
